<?xml version="1.0" encoding="UTF-8" standalone="no"?>
<!DOCTYPE svg PUBLIC "-//W3C//DTD SVG 1.1//EN"
 "http://www.w3.org/Graphics/SVG/1.1/DTD/svg11.dtd">
<!-- Generated by graphviz version 15.0.0 (20260523.1842)
 -->
<!-- Title: FORTUNA Pages: 1 -->
<svg width="1921pt" height="1046pt"
 viewBox="0.00 0.00 1921.00 1046.00" xmlns="http://www.w3.org/2000/svg" xmlns:xlink="http://www.w3.org/1999/xlink">
<g id="graph0" class="graph" transform="scale(1 1) rotate(0) translate(4 1041.5)">
<title>FORTUNA</title>
<polygon fill="white" stroke="none" points="-4,4 -4,-1041.5 1917,-1041.5 1917,4 -4,4"/>
<text xml:space="preserve" text-anchor="middle" x="956.5" y="-1016.4" font-family="Helvetica,sans-Serif" font-size="18.00">FORTUNA — system &amp; data flow (verified at 7bbc3ef, 2026&#45;06&#45;10)</text>
<g id="clust1" class="cluster">
<title>cluster_ext</title>
<polygon fill="none" stroke="#888888" stroke-dasharray="5,2" points="22,-929.25 22,-1002.75 628,-1002.75 628,-929.25 22,-929.25"/>
<text xml:space="preserve" text-anchor="middle" x="325" y="-986.4" font-family="Helvetica,sans-Serif" font-size="13.00">EXTERNAL WORLD (untrusted)</text>
</g>
<g id="clust2" class="cluster">
<title>cluster_cog</title>
<polygon fill="#eef4fb" stroke="#3b6ea5" points="8,-315.75 8,-891.75 566,-891.75 566,-315.75 8,-315.75"/>
<text xml:space="preserve" text-anchor="middle" x="287" y="-875.4" font-family="Helvetica,sans-Serif" font-size="13.00">COGNITION PLANE — fortuna&#45;cognition &#160;(PROPOSE&#45;ONLY · I6 · f64 probabilities allowed)</text>
</g>
<g id="clust3" class="cluster">
<title>cluster_harness</title>
<polygon fill="#eefbef" stroke="#2e7d32" points="575,-8 575,-789 1091,-789 1091,-8 575,-8"/>
<text xml:space="preserve" text-anchor="middle" x="833" y="-772.65" font-family="Helvetica,sans-Serif" font-size="13.00">DETERMINISTIC HARNESS &#160;(single&#45;threaded core · injected Clock · integer Cents)</text>
</g>
<g id="clust4" class="cluster">
<title>cluster_ops</title>
<polygon fill="#fdf1f1" stroke="#b71c1c" points="1099,-305.75 1099,-399.25 1893,-399.25 1893,-305.75 1099,-305.75"/>
<text xml:space="preserve" text-anchor="middle" x="1496" y="-382.9" font-family="Helvetica,sans-Serif" font-size="13.00">OPS / SAFETY</text>
</g>
<!-- mkt -->
<g id="node1" class="node">
<title>mkt</title>
<path fill="white" stroke="#444444" d="M607.62,-973.25C607.62,-973.25 484.38,-973.25 484.38,-973.25 478.38,-973.25 472.38,-967.25 472.38,-961.25 472.38,-961.25 472.38,-949.25 472.38,-949.25 472.38,-943.25 478.38,-937.25 484.38,-937.25 484.38,-937.25 607.62,-937.25 607.62,-937.25 613.62,-937.25 619.62,-943.25 619.62,-949.25 619.62,-949.25 619.62,-961.25 619.62,-961.25 619.62,-967.25 613.62,-973.25 607.62,-973.25"/>
<text xml:space="preserve" text-anchor="middle" x="546" y="-956.8" font-family="Helvetica,sans-Serif" font-size="11.00">Venue market data</text>
<text xml:space="preserve" text-anchor="middle" x="546" y="-944.8" font-family="Helvetica,sans-Serif" font-size="11.00">books · trades · settlements</text>
</g>
<!-- scoring -->
<g id="node13" class="node">
<title>scoring</title>
<path fill="white" stroke="#444444" d="M332.38,-861.12C332.38,-861.12 165.62,-861.12 165.62,-861.12 159.62,-861.12 153.62,-855.12 153.62,-849.12 153.62,-849.12 153.62,-829.12 153.62,-829.12 153.62,-823.12 159.62,-817.12 165.62,-817.12 165.62,-817.12 332.38,-817.12 332.38,-817.12 338.38,-817.12 344.38,-823.12 344.38,-829.12 344.38,-829.12 344.38,-849.12 344.38,-849.12 344.38,-855.12 338.38,-861.12 332.38,-861.12"/>
<text xml:space="preserve" text-anchor="middle" x="249" y="-846.67" font-family="Helvetica,sans-Serif" font-size="11.00">Scoring</text>
<text xml:space="preserve" text-anchor="middle" x="249" y="-834.67" font-family="Helvetica,sans-Serif" font-size="11.00">Brier · CLV vs benchmark snapshots</text>
<text xml:space="preserve" text-anchor="middle" x="249" y="-822.67" font-family="Helvetica,sans-Serif" font-size="11.00">counterfactual veto scoring</text>
</g>
<!-- mkt&#45;&gt;scoring -->
<g id="edge10" class="edge">
<title>mkt&#45;&gt;scoring</title>
<path fill="none" stroke="#555555" stroke-dasharray="5,2" d="M489.06,-936.83C441.6,-922.12 377.87,-901.88 353,-891.75 334.74,-884.31 315.26,-875.02 298.14,-866.38"/>
<polygon fill="#555555" stroke="#555555" points="300.22,-863.51 289.72,-862.07 297.03,-869.74 300.22,-863.51"/>
<text xml:space="preserve" text-anchor="middle" x="473.5" y="-910.7" font-family="Helvetica,sans-Serif" font-size="9.00">benchmark snapshots</text>
<text xml:space="preserve" text-anchor="middle" x="473.5" y="-900.95" font-family="Helvetica,sans-Serif" font-size="9.00">(T&#45;24h/1h/5m)</text>
</g>
<!-- venue -->
<g id="node19" class="node">
<title>venue</title>
<path fill="white" stroke="#444444" d="M1060,-250C1060,-250 882,-250 882,-250 876,-250 870,-244 870,-238 870,-238 870,-218 870,-218 870,-212 876,-206 882,-206 882,-206 1060,-206 1060,-206 1066,-206 1072,-212 1072,-218 1072,-218 1072,-238 1072,-238 1072,-244 1066,-250 1060,-250"/>
<text xml:space="preserve" text-anchor="middle" x="971" y="-235.55" font-family="Helvetica,sans-Serif" font-size="11.00">Venue trait</text>
<text xml:space="preserve" text-anchor="middle" x="971" y="-223.55" font-family="Helvetica,sans-Serif" font-size="11.00">Sim | Paper | Kalshi | Polymarket(stub)</text>
<text xml:space="preserve" text-anchor="middle" x="971" y="-211.55" font-family="Helvetica,sans-Serif" font-size="11.00">fee models · fixtures&#45;gated</text>
</g>
<!-- mkt&#45;&gt;venue -->
<g id="edge12" class="edge">
<title>mkt&#45;&gt;venue</title>
<path fill="none" stroke="#555555" d="M619.98,-951.98C904.58,-942.79 1913,-905.58 1913,-840.12 1913,-840.12 1913,-840.12 1913,-340.75 1913,-323.65 1911.05,-315.5 1897,-305.75 1822.03,-253.71 1167.15,-272.49 1077,-258.25 1068.51,-256.91 1059.74,-255.14 1051.03,-253.12"/>
<polygon fill="#555555" stroke="#555555" points="1052.09,-249.78 1041.54,-250.82 1050.43,-256.58 1052.09,-249.78"/>
</g>
<!-- sig -->
<g id="node2" class="node">
<title>sig</title>
<path fill="white" stroke="#444444" d="M441.88,-973.25C441.88,-973.25 260.12,-973.25 260.12,-973.25 254.12,-973.25 248.12,-967.25 248.12,-961.25 248.12,-961.25 248.12,-949.25 248.12,-949.25 248.12,-943.25 254.12,-937.25 260.12,-937.25 260.12,-937.25 441.88,-937.25 441.88,-937.25 447.88,-937.25 453.88,-943.25 453.88,-949.25 453.88,-949.25 453.88,-961.25 453.88,-961.25 453.88,-967.25 447.88,-973.25 441.88,-973.25"/>
<text xml:space="preserve" text-anchor="middle" x="351" y="-956.8" font-family="Helvetica,sans-Serif" font-size="11.00">Signal sources</text>
<text xml:space="preserve" text-anchor="middle" x="351" y="-944.8" font-family="Helvetica,sans-Serif" font-size="11.00">news/feeds — DATA, never instructions</text>
</g>
<!-- funnel -->
<g id="node6" class="node">
<title>funnel</title>
<path fill="white" stroke="#444444" d="M545.62,-862.25C545.62,-862.25 374.38,-862.25 374.38,-862.25 368.38,-862.25 362.38,-856.25 362.38,-850.25 362.38,-850.25 362.38,-828 362.38,-828 362.38,-822 368.38,-816 374.38,-816 374.38,-816 545.62,-816 545.62,-816 551.62,-816 557.62,-822 557.62,-828 557.62,-828 557.62,-850.25 557.62,-850.25 557.62,-856.25 551.62,-862.25 545.62,-862.25"/>
<text xml:space="preserve" text-anchor="middle" x="460" y="-847.8" font-family="Helvetica,sans-Serif" font-size="11.00">Ingestion funnel</text>
<text xml:space="preserve" text-anchor="middle" x="460" y="-835.8" font-family="Helvetica,sans-Serif" font-size="11.00">Source trait → normalize → dedup</text>
<text xml:space="preserve" text-anchor="middle" x="460" y="-821.55" font-family="Helvetica,sans-Serif" font-size="11.00">source registry (trust tiers, fail&#45;closed)</text>
</g>
<!-- sig&#45;&gt;funnel -->
<g id="edge1" class="edge">
<title>sig&#45;&gt;funnel</title>
<path fill="none" stroke="#555555" d="M367.55,-936.92C384.27,-919.41 410.45,-892 430.69,-870.81"/>
<polygon fill="#555555" stroke="#555555" points="432.98,-873.49 437.35,-863.84 427.91,-868.65 432.98,-873.49"/>
</g>
<!-- aeolus -->
<g id="node3" class="node">
<title>aeolus</title>
<path fill="white" stroke="#444444" d="M118.38,-973.25C118.38,-973.25 41.62,-973.25 41.62,-973.25 35.62,-973.25 29.62,-967.25 29.62,-961.25 29.62,-961.25 29.62,-949.25 29.62,-949.25 29.62,-943.25 35.62,-937.25 41.62,-937.25 41.62,-937.25 118.38,-937.25 118.38,-937.25 124.38,-937.25 130.38,-943.25 130.38,-949.25 130.38,-949.25 130.38,-961.25 130.38,-961.25 130.38,-967.25 124.38,-973.25 118.38,-973.25"/>
<text xml:space="preserve" text-anchor="middle" x="80" y="-956.8" font-family="Helvetica,sans-Serif" font-size="11.00">Aeolus envelopes</text>
<text xml:space="preserve" text-anchor="middle" x="80" y="-944.8" font-family="Helvetica,sans-Serif" font-size="11.00">(forecast exports)</text>
</g>
<!-- beliefs -->
<g id="node11" class="node">
<title>beliefs</title>
<path fill="white" stroke="#444444" d="M493.25,-359.75C493.25,-359.75 352.75,-359.75 352.75,-359.75 346.75,-359.75 340.75,-353.75 340.75,-347.75 340.75,-347.75 340.75,-335.75 340.75,-335.75 340.75,-329.75 346.75,-323.75 352.75,-323.75 352.75,-323.75 493.25,-323.75 493.25,-323.75 499.25,-323.75 505.25,-329.75 505.25,-335.75 505.25,-335.75 505.25,-347.75 505.25,-347.75 505.25,-353.75 499.25,-359.75 493.25,-359.75"/>
<text xml:space="preserve" text-anchor="middle" x="423" y="-343.3" font-family="Helvetica,sans-Serif" font-size="11.00">Belief ledger</text>
<text xml:space="preserve" text-anchor="middle" x="423" y="-331.3" font-family="Helvetica,sans-Serif" font-size="11.00">supersession · freshness policy</text>
</g>
<!-- aeolus&#45;&gt;beliefs -->
<g id="edge7" class="edge">
<title>aeolus&#45;&gt;beliefs</title>
<path fill="none" stroke="#555555" d="M80,-936.85C80,-914.47 80,-874.4 80,-840.12 80,-840.12 80,-840.12 80,-690.88 80,-660.57 76.87,-648.9 94.5,-624.25 153.25,-542.1 213.75,-574.11 289,-506.75 318.94,-479.95 316.37,-464.18 344,-435 352.45,-426.07 356.51,-425.89 365,-417 379.28,-402.06 393.59,-383.78 404.42,-369.1"/>
<polygon fill="#555555" stroke="#555555" points="407.07,-371.42 410.11,-361.27 401.4,-367.3 407.07,-371.42"/>
<text xml:space="preserve" text-anchor="middle" x="162.75" y="-643.33" font-family="Helvetica,sans-Serif" font-size="9.00">aeolus_eval → zero&#45;capital drafts</text>
</g>
<!-- anthropic -->
<g id="node4" class="node">
<title>anthropic</title>
<path fill="white" stroke="#444444" d="M218,-973.25C218,-973.25 160,-973.25 160,-973.25 154,-973.25 148,-967.25 148,-961.25 148,-961.25 148,-949.25 148,-949.25 148,-943.25 154,-937.25 160,-937.25 160,-937.25 218,-937.25 218,-937.25 224,-937.25 230,-943.25 230,-949.25 230,-949.25 230,-961.25 230,-961.25 230,-967.25 224,-973.25 218,-973.25"/>
<text xml:space="preserve" text-anchor="middle" x="189" y="-950.8" font-family="Helvetica,sans-Serif" font-size="11.00">Anthropic API</text>
</g>
<!-- mind -->
<g id="node9" class="node">
<title>mind</title>
<path fill="white" stroke="#444444" d="M480.38,-568.75C480.38,-568.75 301.62,-568.75 301.62,-568.75 295.62,-568.75 289.62,-562.75 289.62,-556.75 289.62,-556.75 289.62,-536.75 289.62,-536.75 289.62,-530.75 295.62,-524.75 301.62,-524.75 301.62,-524.75 480.38,-524.75 480.38,-524.75 486.38,-524.75 492.38,-530.75 492.38,-536.75 492.38,-536.75 492.38,-556.75 492.38,-556.75 492.38,-562.75 486.38,-568.75 480.38,-568.75"/>
<text xml:space="preserve" text-anchor="middle" x="391" y="-554.3" font-family="Helvetica,sans-Serif" font-size="11.00">Mind trait</text>
<text xml:space="preserve" text-anchor="middle" x="391" y="-542.3" font-family="Helvetica,sans-Serif" font-size="11.00">StubMind | AnthropicMind</text>
<text xml:space="preserve" text-anchor="middle" x="391" y="-530.3" font-family="Helvetica,sans-Serif" font-size="11.00">cost budgets · schema&#45;validated output</text>
</g>
<!-- anthropic&#45;&gt;mind -->
<g id="edge6" class="edge">
<title>anthropic&#45;&gt;mind</title>
<path fill="none" stroke="#555555" stroke-dasharray="5,2" d="M165.39,-928.35C157.27,-917.79 149.18,-904.96 145,-891.75 121.04,-816.1 129.02,-781.21 173.5,-715.5 197.25,-680.41 292.85,-613.2 349.09,-575.37"/>
<polygon fill="#555555" stroke="#555555" points="162.45,-930.28 171.47,-935.83 167.88,-925.87 162.45,-930.28"/>
<polygon fill="#555555" stroke="#555555" points="350.81,-578.43 357.18,-569.95 346.92,-572.61 350.81,-578.43"/>
<text xml:space="preserve" text-anchor="middle" x="219.25" y="-733.83" font-family="Helvetica,sans-Serif" font-size="9.00">HTTPS, env&#45;key gated</text>
</g>
<!-- operator -->
<g id="node5" class="node">
<title>operator</title>
<path fill="#fff3cd" stroke="#444444" stroke-width="1.5" d="M1662.25,-475C1662.25,-475 1467.75,-475 1467.75,-475 1461.75,-475 1455.75,-469 1455.75,-463 1455.75,-463 1455.75,-451 1455.75,-451 1455.75,-445 1461.75,-439 1467.75,-439 1467.75,-439 1662.25,-439 1662.25,-439 1668.25,-439 1674.25,-445 1674.25,-451 1674.25,-451 1674.25,-463 1674.25,-463 1674.25,-469 1668.25,-475 1662.25,-475"/>
<text xml:space="preserve" text-anchor="middle" x="1565" y="-458.55" font-family="Helvetica,sans-Serif" font-size="11.00">OPERATOR (human, out&#45;of&#45;band)</text>
<text xml:space="preserve" text-anchor="middle" x="1565" y="-446.55" font-family="Helvetica,sans-Serif" font-size="11.00">re&#45;arms · promotions · credentials · waives</text>
</g>
<!-- halt -->
<g id="node23" class="node">
<title>halt</title>
<path fill="#ffcdd2" stroke="#444444" d="M1421,-363.75C1421,-363.75 1297,-363.75 1297,-363.75 1291,-363.75 1285,-357.75 1285,-351.75 1285,-351.75 1285,-331.75 1285,-331.75 1285,-325.75 1291,-319.75 1297,-319.75 1297,-319.75 1421,-319.75 1421,-319.75 1427,-319.75 1433,-325.75 1433,-331.75 1433,-331.75 1433,-351.75 1433,-351.75 1433,-357.75 1427,-363.75 1421,-363.75"/>
<text xml:space="preserve" text-anchor="middle" x="1359" y="-349.3" font-family="Helvetica,sans-Serif" font-size="11.00">HALT FLAGS</text>
<text xml:space="preserve" text-anchor="middle" x="1359" y="-337.3" font-family="Helvetica,sans-Serif" font-size="11.00">breach = halt, never throttle</text>
<text xml:space="preserve" text-anchor="middle" x="1359" y="-325.3" font-family="Helvetica,sans-Serif" font-size="11.00">human re&#45;arm ONLY (I2)</text>
</g>
<!-- operator&#45;&gt;halt -->
<g id="edge29" class="edge">
<title>operator&#45;&gt;halt</title>
<path fill="none" stroke="#555555" d="M1522.01,-438.25C1497.99,-427.82 1467.79,-413.84 1442,-399.25 1426.84,-390.67 1410.87,-380.18 1397.03,-370.58"/>
<polygon fill="#555555" stroke="#555555" points="1399.25,-367.86 1389.06,-364.97 1395.23,-373.59 1399.25,-367.86"/>
<text xml:space="preserve" text-anchor="middle" x="1488.41" y="-408.45" font-family="Helvetica,sans-Serif" font-size="9.00">re&#45;arm</text>
</g>
<!-- kill -->
<g id="node24" class="node">
<title>kill</title>
<path fill="#ffcdd2" stroke="#444444" stroke-width="2.2" d="M1666.75,-369.75C1666.75,-369.75 1463.25,-369.75 1463.25,-369.75 1457.25,-369.75 1451.25,-363.75 1451.25,-357.75 1451.25,-357.75 1451.25,-325.75 1451.25,-325.75 1451.25,-319.75 1457.25,-313.75 1463.25,-313.75 1463.25,-313.75 1666.75,-313.75 1666.75,-313.75 1672.75,-313.75 1678.75,-319.75 1678.75,-325.75 1678.75,-325.75 1678.75,-357.75 1678.75,-357.75 1678.75,-363.75 1672.75,-369.75 1666.75,-369.75"/>
<text xml:space="preserve" text-anchor="middle" x="1565" y="-355.3" font-family="Helvetica,sans-Serif" font-size="11.00">KILL SWITCH — I4</text>
<text xml:space="preserve" text-anchor="middle" x="1565" y="-343.3" font-family="Helvetica,sans-Serif" font-size="11.00">standalone binary</text>
<text xml:space="preserve" text-anchor="middle" x="1565" y="-331.3" font-family="Helvetica,sans-Serif" font-size="11.00">NO Postgres · NO cognition · NO event loop</text>
<text xml:space="preserve" text-anchor="middle" x="1565" y="-319.3" font-family="Helvetica,sans-Serif" font-size="11.00">freeze + cancel direct at venue</text>
</g>
<!-- operator&#45;&gt;kill -->
<g id="edge30" class="edge">
<title>operator&#45;&gt;kill</title>
<path fill="none" stroke="#555555" d="M1565,-438.3C1565,-423.26 1565,-401.11 1565,-381.93"/>
<polygon fill="#555555" stroke="#555555" points="1568.5,-381.97 1565,-371.97 1561.5,-381.97 1568.5,-381.97"/>
</g>
<!-- promo -->
<g id="node25" class="node">
<title>promo</title>
<path fill="white" stroke="#444444" d="M1872.88,-364.88C1872.88,-364.88 1709.12,-364.88 1709.12,-364.88 1703.12,-364.88 1697.12,-358.88 1697.12,-352.88 1697.12,-352.88 1697.12,-330.62 1697.12,-330.62 1697.12,-324.62 1703.12,-318.62 1709.12,-318.62 1709.12,-318.62 1872.88,-318.62 1872.88,-318.62 1878.88,-318.62 1884.88,-324.62 1884.88,-330.62 1884.88,-330.62 1884.88,-352.88 1884.88,-352.88 1884.88,-358.88 1878.88,-364.88 1872.88,-364.88"/>
<text xml:space="preserve" text-anchor="middle" x="1791" y="-350.43" font-family="Helvetica,sans-Serif" font-size="11.00">PROMOTION GATES — I7</text>
<text xml:space="preserve" text-anchor="middle" x="1791" y="-338.43" font-family="Helvetica,sans-Serif" font-size="11.00">shadow model comparison</text>
<text xml:space="preserve" text-anchor="middle" x="1791" y="-326.43" font-family="Helvetica,sans-Serif" font-size="11.00">Sim → Paper → Live, operator&#45;only</text>
</g>
<!-- operator&#45;&gt;promo -->
<g id="edge32" class="edge">
<title>operator&#45;&gt;promo</title>
<path fill="none" stroke="#555555" d="M1605.22,-438.29C1629.41,-427.43 1660.7,-413.01 1688,-399.25 1705.81,-390.27 1725.05,-379.9 1742.02,-370.52"/>
<polygon fill="#555555" stroke="#555555" points="1743.36,-373.78 1750.4,-365.87 1739.96,-367.66 1743.36,-373.78"/>
</g>
<!-- trigger -->
<g id="node7" class="node">
<title>trigger</title>
<path fill="white" stroke="#444444" d="M527.5,-759.5C527.5,-759.5 442.5,-759.5 442.5,-759.5 436.5,-759.5 430.5,-753.5 430.5,-747.5 430.5,-747.5 430.5,-727.5 430.5,-727.5 430.5,-721.5 436.5,-715.5 442.5,-715.5 442.5,-715.5 527.5,-715.5 527.5,-715.5 533.5,-715.5 539.5,-721.5 539.5,-727.5 539.5,-727.5 539.5,-747.5 539.5,-747.5 539.5,-753.5 533.5,-759.5 527.5,-759.5"/>
<text xml:space="preserve" text-anchor="middle" x="485" y="-745.05" font-family="Helvetica,sans-Serif" font-size="11.00">Trigger engine</text>
<text xml:space="preserve" text-anchor="middle" x="485" y="-733.05" font-family="Helvetica,sans-Serif" font-size="11.00">rules + debounce</text>
<text xml:space="preserve" text-anchor="middle" x="485" y="-721.05" font-family="Helvetica,sans-Serif" font-size="11.00">one cycle per event</text>
</g>
<!-- funnel&#45;&gt;trigger -->
<g id="edge2" class="edge">
<title>funnel&#45;&gt;trigger</title>
<path fill="none" stroke="#555555" d="M465.67,-815.52C468.97,-802.38 473.18,-785.6 476.83,-771.06"/>
<polygon fill="#555555" stroke="#555555" points="480.2,-772.01 479.24,-761.46 473.41,-770.31 480.2,-772.01"/>
</g>
<!-- ctx -->
<g id="node8" class="node">
<title>ctx</title>
<path fill="white" stroke="#444444" d="M519.25,-668.25C519.25,-668.25 366.75,-668.25 366.75,-668.25 360.75,-668.25 354.75,-662.25 354.75,-656.25 354.75,-656.25 354.75,-636.25 354.75,-636.25 354.75,-630.25 360.75,-624.25 366.75,-624.25 366.75,-624.25 519.25,-624.25 519.25,-624.25 525.25,-624.25 531.25,-630.25 531.25,-636.25 531.25,-636.25 531.25,-656.25 531.25,-656.25 531.25,-662.25 525.25,-668.25 519.25,-668.25"/>
<text xml:space="preserve" text-anchor="middle" x="443" y="-653.8" font-family="Helvetica,sans-Serif" font-size="11.00">Context assembler</text>
<text xml:space="preserve" text-anchor="middle" x="443" y="-641.8" font-family="Helvetica,sans-Serif" font-size="11.00">budgeted packing · manifest hash</text>
<text xml:space="preserve" text-anchor="middle" x="443" y="-629.8" font-family="Helvetica,sans-Serif" font-size="11.00">point&#45;in&#45;time · anonymization</text>
</g>
<!-- trigger&#45;&gt;ctx -->
<g id="edge3" class="edge">
<title>trigger&#45;&gt;ctx</title>
<path fill="none" stroke="#555555" d="M475.05,-715.35C469.91,-704.42 463.53,-690.88 457.82,-678.75"/>
<polygon fill="#555555" stroke="#555555" points="461.1,-677.49 453.67,-669.93 454.76,-680.47 461.1,-677.49"/>
</g>
<!-- ctx&#45;&gt;mind -->
<g id="edge4" class="edge">
<title>ctx&#45;&gt;mind</title>
<path fill="none" stroke="#555555" d="M431.72,-624.09C424.75,-611.02 415.67,-594.01 407.86,-579.36"/>
<polygon fill="#555555" stroke="#555555" points="410.95,-577.71 403.15,-570.54 404.77,-581.01 410.95,-577.71"/>
</g>
<!-- cycle -->
<g id="node10" class="node">
<title>cycle</title>
<path fill="white" stroke="#444444" d="M497.12,-479C497.12,-479 364.88,-479 364.88,-479 358.88,-479 352.88,-473 352.88,-467 352.88,-467 352.88,-447 352.88,-447 352.88,-441 358.88,-435 364.88,-435 364.88,-435 497.12,-435 497.12,-435 503.12,-435 509.12,-441 509.12,-447 509.12,-447 509.12,-467 509.12,-467 509.12,-473 503.12,-479 497.12,-479"/>
<text xml:space="preserve" text-anchor="middle" x="431" y="-464.55" font-family="Helvetica,sans-Serif" font-size="11.00">Decision cycle</text>
<text xml:space="preserve" text-anchor="middle" x="431" y="-452.55" font-family="Helvetica,sans-Serif" font-size="11.00">two&#45;sided comparator · triage</text>
<text xml:space="preserve" text-anchor="middle" x="431" y="-440.55" font-family="Helvetica,sans-Serif" font-size="11.00">shadow sampling</text>
</g>
<!-- mind&#45;&gt;cycle -->
<g id="edge5" class="edge">
<title>mind&#45;&gt;cycle</title>
<path fill="none" stroke="#555555" d="M400.68,-524.51C405.46,-514.02 411.32,-501.16 416.62,-489.55"/>
<polygon fill="#555555" stroke="#555555" points="419.68,-491.28 420.64,-480.73 413.31,-488.38 419.68,-491.28"/>
</g>
<!-- pg -->
<g id="node22" class="node">
<title>pg</title>
<path fill="#f3e5f5" stroke="#444444" stroke-width="1.5" d="M567.12,-252.75C567.12,-255.78 501.18,-258.25 420,-258.25 338.82,-258.25 272.88,-255.78 272.88,-252.75 272.88,-252.75 272.88,-203.25 272.88,-203.25 272.88,-200.22 338.82,-197.75 420,-197.75 501.18,-197.75 567.12,-200.22 567.12,-203.25 567.12,-203.25 567.12,-252.75 567.12,-252.75"/>
<path fill="none" stroke="#444444" stroke-width="1.5" d="M567.12,-252.75C567.12,-249.72 501.18,-247.25 420,-247.25 338.82,-247.25 272.88,-249.72 272.88,-252.75"/>
<text xml:space="preserve" text-anchor="middle" x="420" y="-235.55" font-family="Helvetica,sans-Serif" font-size="11.00">POSTGRES LEDGER — fortuna&#45;ledger</text>
<text xml:space="preserve" text-anchor="middle" x="420" y="-223.55" font-family="Helvetica,sans-Serif" font-size="11.00">APPEND&#45;ONLY audit (I5) · beliefs · events/edges · intents</text>
<text xml:space="preserve" text-anchor="middle" x="420" y="-211.55" font-family="Helvetica,sans-Serif" font-size="11.00">settlements · snapshots · calibration params</text>
</g>
<!-- mind&#45;&gt;pg -->
<g id="edge34" class="edge">
<title>mind&#45;&gt;pg</title>
<path fill="none" stroke="#555555" stroke-dasharray="1,5" d="M358.2,-524.47C324.58,-499.69 278.52,-455.89 288.5,-407.25 298.37,-359.17 303.12,-345.43 332,-305.75 342.47,-291.36 356.11,-277.82 369.51,-266.23"/>
<polygon fill="#555555" stroke="#555555" points="371.67,-268.99 377.08,-259.88 367.17,-263.63 371.67,-268.99"/>
<text xml:space="preserve" text-anchor="middle" x="326.75" y="-408.45" font-family="Helvetica,sans-Serif" font-size="9.00">audit every consult</text>
</g>
<!-- cycle&#45;&gt;beliefs -->
<g id="edge9" class="edge">
<title>cycle&#45;&gt;beliefs</title>
<path fill="none" stroke="#555555" d="M429.5,-434.7C428.24,-416.87 426.43,-391.26 425.04,-371.6"/>
<polygon fill="#555555" stroke="#555555" points="428.54,-371.48 424.34,-361.75 421.56,-371.98 428.54,-371.48"/>
</g>
<!-- strategy -->
<g id="node14" class="node">
<title>strategy</title>
<path fill="white" stroke="#444444" d="M824,-759.5C824,-759.5 598,-759.5 598,-759.5 592,-759.5 586,-753.5 586,-747.5 586,-747.5 586,-727.5 586,-727.5 586,-721.5 592,-715.5 598,-715.5 598,-715.5 824,-715.5 824,-715.5 830,-715.5 836,-721.5 836,-727.5 836,-727.5 836,-747.5 836,-747.5 836,-753.5 830,-759.5 824,-759.5"/>
<text xml:space="preserve" text-anchor="middle" x="711" y="-745.05" font-family="Helvetica,sans-Serif" font-size="11.00">Strategy trait</text>
<text xml:space="preserve" text-anchor="middle" x="711" y="-733.05" font-family="Helvetica,sans-Serif" font-size="11.00">mech_structural | mech_extremes | synth_events</text>
<text xml:space="preserve" text-anchor="middle" x="711" y="-721.05" font-family="Helvetica,sans-Serif" font-size="11.00">SynthesisStrategy (model adapter)</text>
</g>
<!-- cycle&#45;&gt;strategy -->
<g id="edge11" class="edge">
<title>cycle&#45;&gt;strategy</title>
<path fill="none" stroke="#3b6ea5" stroke-width="2.5" d="M458.23,-479.25C472.42,-491.39 489.21,-507.59 501,-524.75 512.78,-541.89 557.44,-683.7 573,-697.5 577.58,-701.56 582.54,-705.2 587.79,-708.46"/>
<polygon fill="#3b6ea5" stroke="#3b6ea5" stroke-width="2.5" points="585.91,-711.42 596.35,-713.19 589.29,-705.29 585.91,-711.42"/>
<text xml:space="preserve" text-anchor="middle" x="586.15" y="-597.7" font-family="Helvetica,sans-Serif" font-size="9.00" fill="#3b6ea5">UNSIZED candidates only</text>
<text xml:space="preserve" text-anchor="middle" x="586.15" y="-587.95" font-family="Helvetica,sans-Serif" font-size="9.00" fill="#3b6ea5">(the I6 boundary)</text>
</g>
<!-- beliefs&#45;&gt;ctx -->
<g id="edge8" class="edge">
<title>beliefs&#45;&gt;ctx</title>
<path fill="none" stroke="#555555" stroke-dasharray="5,2" d="M450.56,-360.12C473.45,-376.33 504.39,-402.81 518,-435 541.34,-490.19 525.32,-513.99 501,-568.75 493.58,-585.46 481.87,-601.89 470.91,-615.22"/>
<polygon fill="#555555" stroke="#555555" points="468.3,-612.88 464.48,-622.76 473.63,-617.42 468.3,-612.88"/>
</g>
<!-- beliefs&#45;&gt;pg -->
<g id="edge38" class="edge">
<title>beliefs&#45;&gt;pg</title>
<path fill="none" stroke="#555555" stroke-dasharray="1,5" d="M422.53,-323.29C422.15,-309.12 421.6,-288.57 421.11,-270.27"/>
<polygon fill="#555555" stroke="#555555" points="424.61,-270.36 420.84,-260.46 417.61,-270.55 424.61,-270.36"/>
</g>
<!-- calib -->
<g id="node12" class="node">
<title>calib</title>
<path fill="white" stroke="#444444" d="M400.12,-759.5C400.12,-759.5 285.88,-759.5 285.88,-759.5 279.88,-759.5 273.88,-753.5 273.88,-747.5 273.88,-747.5 273.88,-727.5 273.88,-727.5 273.88,-721.5 279.88,-715.5 285.88,-715.5 285.88,-715.5 400.12,-715.5 400.12,-715.5 406.12,-715.5 412.12,-721.5 412.12,-727.5 412.12,-727.5 412.12,-747.5 412.12,-747.5 412.12,-753.5 406.12,-759.5 400.12,-759.5"/>
<text xml:space="preserve" text-anchor="middle" x="343" y="-745.05" font-family="Helvetica,sans-Serif" font-size="11.00">Calibration layer</text>
<text xml:space="preserve" text-anchor="middle" x="343" y="-733.05" font-family="Helvetica,sans-Serif" font-size="11.00">Platt / isotonic · shrinkage</text>
<text xml:space="preserve" text-anchor="middle" x="343" y="-721.05" font-family="Helvetica,sans-Serif" font-size="11.00">quality score</text>
</g>
<!-- sizing -->
<g id="node15" class="node">
<title>sizing</title>
<path fill="white" stroke="#444444" d="M809.75,-668.25C809.75,-668.25 612.25,-668.25 612.25,-668.25 606.25,-668.25 600.25,-662.25 600.25,-656.25 600.25,-656.25 600.25,-636.25 600.25,-636.25 600.25,-630.25 606.25,-624.25 612.25,-624.25 612.25,-624.25 809.75,-624.25 809.75,-624.25 815.75,-624.25 821.75,-630.25 821.75,-636.25 821.75,-636.25 821.75,-656.25 821.75,-656.25 821.75,-662.25 815.75,-668.25 809.75,-668.25"/>
<text xml:space="preserve" text-anchor="middle" x="711" y="-653.8" font-family="Helvetica,sans-Serif" font-size="11.00">Sizing — HARNESS&#45;OWNED</text>
<text xml:space="preserve" text-anchor="middle" x="711" y="-641.8" font-family="Helvetica,sans-Serif" font-size="11.00">Kelly × calibration haircut (E1: wiring open)</text>
<text xml:space="preserve" text-anchor="middle" x="711" y="-629.8" font-family="Helvetica,sans-Serif" font-size="11.00">envelope reservations</text>
</g>
<!-- calib&#45;&gt;sizing -->
<g id="edge25" class="edge">
<title>calib&#45;&gt;sizing</title>
<path fill="none" stroke="#3b6ea5" stroke-dasharray="5,2" d="M412.33,-717.95C415.6,-717.12 418.83,-716.29 422,-715.5 482.81,-700.24 551.07,-684.07 605.98,-671.31"/>
<polygon fill="#3b6ea5" stroke="#3b6ea5" points="606.7,-674.73 615.65,-669.06 605.12,-667.91 606.7,-674.73"/>
<text xml:space="preserve" text-anchor="middle" x="575" y="-688.95" font-family="Helvetica,sans-Serif" font-size="9.00" fill="#3b6ea5">quality → haircut</text>
</g>
<!-- scoring&#45;&gt;calib -->
<g id="edge24" class="edge">
<title>scoring&#45;&gt;calib</title>
<path fill="none" stroke="#3b6ea5" d="M268.93,-817C282.3,-802.83 300.1,-783.96 314.9,-768.28"/>
<polygon fill="#3b6ea5" stroke="#3b6ea5" points="317.41,-770.72 321.73,-761.04 312.32,-765.91 317.41,-770.72"/>
</g>
<!-- strategy&#45;&gt;sizing -->
<g id="edge13" class="edge">
<title>strategy&#45;&gt;sizing</title>
<path fill="none" stroke="#555555" d="M711,-715.35C711,-704.76 711,-691.7 711,-679.86"/>
<polygon fill="#555555" stroke="#555555" points="714.5,-680.07 711,-670.07 707.5,-680.07 714.5,-680.07"/>
</g>
<!-- gates -->
<g id="node16" class="node">
<title>gates</title>
<path fill="#dcedc8" stroke="#444444" stroke-width="2.2" d="M859.38,-568.75C859.38,-568.75 692.62,-568.75 692.62,-568.75 686.62,-568.75 680.62,-562.75 680.62,-556.75 680.62,-556.75 680.62,-536.75 680.62,-536.75 680.62,-530.75 686.62,-524.75 692.62,-524.75 692.62,-524.75 859.38,-524.75 859.38,-524.75 865.38,-524.75 871.38,-530.75 871.38,-536.75 871.38,-536.75 871.38,-556.75 871.38,-556.75 871.38,-562.75 865.38,-568.75 859.38,-568.75"/>
<text xml:space="preserve" text-anchor="middle" x="776" y="-554.3" font-family="Helvetica,sans-Serif" font-size="11.00">UNIVERSAL GATE PIPELINE — I1</text>
<text xml:space="preserve" text-anchor="middle" x="776" y="-542.3" font-family="Helvetica,sans-Serif" font-size="11.00">checks 1&#45;10 · fail&#45;closed</text>
<text xml:space="preserve" text-anchor="middle" x="776" y="-530.3" font-family="Helvetica,sans-Serif" font-size="11.00">rate buckets (I3) · drawdown (I2)</text>
</g>
<!-- sizing&#45;&gt;gates -->
<g id="edge14" class="edge">
<title>sizing&#45;&gt;gates</title>
<path fill="none" stroke="#555555" d="M725.1,-624.09C733.93,-610.86 745.44,-593.59 755.29,-578.82"/>
<polygon fill="#555555" stroke="#555555" points="758,-581.06 760.63,-570.8 752.17,-577.18 758,-581.06"/>
</g>
<!-- gated -->
<g id="node17" class="node">
<title>gated</title>
<polygon fill="#f1f8e9" stroke="#444444" points="872.62,-475 689.38,-475 689.38,-439 878.62,-439 878.62,-469 872.62,-475"/>
<polyline fill="none" stroke="#444444" points="872.62,-475 872.62,-469"/>
<polyline fill="none" stroke="#444444" points="878.62,-469 872.62,-469"/>
<text xml:space="preserve" text-anchor="middle" x="784" y="-458.55" font-family="Helvetica,sans-Serif" font-size="11.00">GatedOrder — SEALED TYPE</text>
<text xml:space="preserve" text-anchor="middle" x="784" y="-446.55" font-family="Helvetica,sans-Serif" font-size="11.00">sole constructor inside fortuna&#45;gates</text>
</g>
<!-- gates&#45;&gt;gated -->
<g id="edge15" class="edge">
<title>gates&#45;&gt;gated</title>
<path fill="none" stroke="#555555" stroke-width="2" d="M777.98,-524.06C778.96,-513.26 780.17,-500.03 781.24,-488.25"/>
<polygon fill="#555555" stroke="#555555" stroke-width="2" points="784.72,-488.62 782.15,-478.34 777.75,-487.99 784.72,-488.62"/>
</g>
<!-- gates&#45;&gt;pg -->
<g id="edge35" class="edge">
<title>gates&#45;&gt;pg</title>
<path fill="none" stroke="#555555" stroke-dasharray="1,5" d="M679.62,-530.01C653.27,-523.92 629.37,-516.13 620,-506.75 554.94,-441.62 636.46,-369.45 570,-305.75 553.95,-290.37 541.54,-304.25 521,-295.75 502.17,-287.95 483.11,-276.48 466.7,-265.25"/>
<polygon fill="#555555" stroke="#555555" points="468.8,-262.44 458.61,-259.55 464.78,-268.17 468.8,-262.44"/>
</g>
<!-- gates&#45;&gt;halt -->
<g id="edge26" class="edge">
<title>gates&#45;&gt;halt</title>
<path fill="none" stroke="#b71c1c" d="M872.29,-526.94C975.41,-504.66 1142.28,-462.42 1276,-399.25 1292.26,-391.57 1308.9,-380.9 1322.97,-370.9"/>
<polygon fill="#b71c1c" stroke="#b71c1c" points="1325.02,-373.74 1331.04,-365.02 1320.9,-368.08 1325.02,-373.74"/>
<text xml:space="preserve" text-anchor="middle" x="1203.05" y="-453.32" font-family="Helvetica,sans-Serif" font-size="9.00" fill="#b71c1c">breach</text>
</g>
<!-- exec -->
<g id="node18" class="node">
<title>exec</title>
<path fill="white" stroke="#444444" d="M917.88,-363.75C917.88,-363.75 784.12,-363.75 784.12,-363.75 778.12,-363.75 772.12,-357.75 772.12,-351.75 772.12,-351.75 772.12,-331.75 772.12,-331.75 772.12,-325.75 778.12,-319.75 784.12,-319.75 784.12,-319.75 917.88,-319.75 917.88,-319.75 923.88,-319.75 929.88,-325.75 929.88,-331.75 929.88,-331.75 929.88,-351.75 929.88,-351.75 929.88,-357.75 923.88,-363.75 917.88,-363.75"/>
<text xml:space="preserve" text-anchor="middle" x="851" y="-349.3" font-family="Helvetica,sans-Serif" font-size="11.00">Execution</text>
<text xml:space="preserve" text-anchor="middle" x="851" y="-337.3" font-family="Helvetica,sans-Serif" font-size="11.00">intent journal · order manager</text>
<text xml:space="preserve" text-anchor="middle" x="851" y="-325.3" font-family="Helvetica,sans-Serif" font-size="11.00">IntentGroups · flatten planner</text>
</g>
<!-- gated&#45;&gt;exec -->
<g id="edge16" class="edge">
<title>gated&#45;&gt;exec</title>
<path fill="none" stroke="#555555" stroke-width="2" d="M794.18,-438.8C804.14,-421.96 819.56,-395.89 831.83,-375.16"/>
<polygon fill="#555555" stroke="#555555" stroke-width="2" points="834.82,-376.97 836.9,-366.59 828.79,-373.41 834.82,-376.97"/>
</g>
<!-- exec&#45;&gt;venue -->
<g id="edge17" class="edge">
<title>exec&#45;&gt;venue</title>
<path fill="none" stroke="#555555" stroke-width="2" d="M859.99,-319.41C866.5,-305.85 876.31,-288.59 888.75,-276.25 895.9,-269.16 904.33,-262.75 913.02,-257.12"/>
<polygon fill="#555555" stroke="#555555" stroke-width="2" points="914.77,-260.15 921.5,-251.97 911.14,-254.17 914.77,-260.15"/>
<text xml:space="preserve" text-anchor="middle" x="916.88" y="-282.32" font-family="Helvetica,sans-Serif" font-size="9.00">place / cancel</text>
</g>
<!-- state -->
<g id="node20" class="node">
<title>state</title>
<path fill="white" stroke="#444444" d="M800,-60C800,-60 676,-60 676,-60 670,-60 664,-54 664,-48 664,-48 664,-28 664,-28 664,-22 670,-16 676,-16 676,-16 800,-16 800,-16 806,-16 812,-22 812,-28 812,-28 812,-48 812,-48 812,-54 806,-60 800,-60"/>
<text xml:space="preserve" text-anchor="middle" x="738" y="-45.55" font-family="Helvetica,sans-Serif" font-size="11.00">State</text>
<text xml:space="preserve" text-anchor="middle" x="738" y="-33.55" font-family="Helvetica,sans-Serif" font-size="11.00">positions · marks · accounts</text>
<text xml:space="preserve" text-anchor="middle" x="738" y="-21.55" font-family="Helvetica,sans-Serif" font-size="11.00">DrawdownMonitor</text>
</g>
<!-- exec&#45;&gt;state -->
<g id="edge20" class="edge">
<title>exec&#45;&gt;state</title>
<path fill="none" stroke="#555555" d="M852.62,-319.28C856.06,-268.27 862.19,-141.37 841,-105.75 831.21,-89.29 815.6,-76.17 799.46,-66.06"/>
<polygon fill="#555555" stroke="#555555" points="801.64,-63.28 791.25,-61.22 798.09,-69.31 801.64,-63.28"/>
</g>
<!-- exec&#45;&gt;pg -->
<g id="edge36" class="edge">
<title>exec&#45;&gt;pg</title>
<path fill="none" stroke="#555555" stroke-dasharray="1,5" d="M771.75,-329.98C684.92,-318.03 556.46,-299.9 546,-295.75 531.9,-290.16 531.09,-283.9 518,-276.25 510.99,-272.16 503.58,-268.1 496.09,-264.2"/>
<polygon fill="#555555" stroke="#555555" points="497.7,-261.09 487.21,-259.66 494.52,-267.33 497.7,-261.09"/>
</g>
<!-- venue&#45;&gt;exec -->
<g id="edge18" class="edge">
<title>venue&#45;&gt;exec</title>
<path fill="none" stroke="#555555" d="M966.96,-250.45C963.32,-264.75 956.67,-283.17 945,-295.75 938.54,-302.71 930.79,-308.71 922.53,-313.84"/>
<polygon fill="#555555" stroke="#555555" points="920.92,-310.73 913.97,-318.73 924.39,-316.81 920.92,-310.73"/>
<text xml:space="preserve" text-anchor="middle" x="977.28" y="-282.32" font-family="Helvetica,sans-Serif" font-size="9.00">acks · fills</text>
</g>
<!-- settle -->
<g id="node21" class="node">
<title>settle</title>
<path fill="white" stroke="#444444" d="M819.88,-152C819.88,-152 656.12,-152 656.12,-152 650.12,-152 644.12,-146 644.12,-140 644.12,-140 644.12,-117.75 644.12,-117.75 644.12,-111.75 650.12,-105.75 656.12,-105.75 656.12,-105.75 819.88,-105.75 819.88,-105.75 825.88,-105.75 831.88,-111.75 831.88,-117.75 831.88,-117.75 831.88,-140 831.88,-140 831.88,-146 825.88,-152 819.88,-152"/>
<text xml:space="preserve" text-anchor="middle" x="738" y="-137.55" font-family="Helvetica,sans-Serif" font-size="11.00">Settlement processors + watchdogs</text>
<text xml:space="preserve" text-anchor="middle" x="738" y="-125.55" font-family="Helvetica,sans-Serif" font-size="11.00">overdue · dispute · divergence</text>
<text xml:space="preserve" text-anchor="middle" x="738" y="-113.55" font-family="Helvetica,sans-Serif" font-size="11.00">position&#45;mismatch → discrepancy</text>
</g>
<!-- venue&#45;&gt;settle -->
<g id="edge19" class="edge">
<title>venue&#45;&gt;settle</title>
<path fill="none" stroke="#555555" d="M919.58,-205.57C885.03,-191.17 839.25,-172.08 802.3,-156.68"/>
<polygon fill="#555555" stroke="#555555" points="804.1,-153.64 793.52,-153.02 801.41,-160.1 804.1,-153.64"/>
<text xml:space="preserve" text-anchor="middle" x="891.25" y="-171.2" font-family="Helvetica,sans-Serif" font-size="9.00">settlement notices</text>
</g>
<!-- state&#45;&gt;gates -->
<g id="edge22" class="edge">
<title>state&#45;&gt;gates</title>
<path fill="none" stroke="#555555" stroke-dasharray="5,2" d="M679.51,-60.49C651.94,-74.76 625,-96.68 625,-127.88 625,-458 625,-458 625,-458 625,-486.5 645.36,-505.9 671.12,-519.04"/>
<polygon fill="#555555" stroke="#555555" points="669.32,-522.06 679.86,-523.14 672.29,-515.72 669.32,-522.06"/>
<text xml:space="preserve" text-anchor="middle" x="668.88" y="-282.32" font-family="Helvetica,sans-Serif" font-size="9.00">exposure · drawdown</text>
</g>
<!-- settle&#45;&gt;scoring -->
<g id="edge23" class="edge">
<title>settle&#45;&gt;scoring</title>
<path fill="none" stroke="#3b6ea5" d="M643.82,-129.54C500.72,-131.62 245,-146.58 245,-227 245,-647.25 245,-647.25 245,-647.25 245,-702.73 246.71,-767.26 247.89,-805.29"/>
<polygon fill="#3b6ea5" stroke="#3b6ea5" points="244.39,-805.26 248.21,-815.15 251.39,-805.04 244.39,-805.26"/>
<text xml:space="preserve" text-anchor="middle" x="264.88" y="-498.2" font-family="Helvetica,sans-Serif" font-size="9.00">outcomes</text>
</g>
<!-- settle&#45;&gt;state -->
<g id="edge21" class="edge">
<title>settle&#45;&gt;state</title>
<path fill="none" stroke="#555555" d="M738,-105.45C738,-95.22 738,-82.91 738,-71.68"/>
<polygon fill="#555555" stroke="#555555" points="741.5,-72.01 738,-62.01 734.5,-72.01 741.5,-72.01"/>
<text xml:space="preserve" text-anchor="middle" x="756.75" y="-79.2" font-family="Helvetica,sans-Serif" font-size="9.00">reversals</text>
</g>
<!-- settle&#45;&gt;pg -->
<g id="edge37" class="edge">
<title>settle&#45;&gt;pg</title>
<path fill="none" stroke="#555555" stroke-dasharray="1,5" d="M664.02,-152.47C623.37,-164.89 572.22,-180.51 527.26,-194.24"/>
<polygon fill="#555555" stroke="#555555" points="526.26,-190.89 517.72,-197.15 528.31,-197.58 526.26,-190.89"/>
</g>
<!-- settle&#45;&gt;halt -->
<g id="edge27" class="edge">
<title>settle&#45;&gt;halt</title>
<path fill="none" stroke="#b71c1c" d="M832.31,-141.29C902.29,-151.48 999.31,-169.29 1081,-197.75 1168.15,-228.11 1262.18,-281.23 1315.5,-313.48"/>
<polygon fill="#b71c1c" stroke="#b71c1c" points="1313.63,-316.44 1323.99,-318.65 1317.27,-310.46 1313.63,-316.44"/>
<text xml:space="preserve" text-anchor="middle" x="1273.24" y="-225.07" font-family="Helvetica,sans-Serif" font-size="9.00" fill="#b71c1c">discrepancy → GLOBAL halt</text>
</g>
<!-- obs -->
<g id="node26" class="node">
<title>obs</title>
<path fill="white" stroke="#444444" d="M1255.38,-363.75C1255.38,-363.75 1118.62,-363.75 1118.62,-363.75 1112.62,-363.75 1106.62,-357.75 1106.62,-351.75 1106.62,-351.75 1106.62,-331.75 1106.62,-331.75 1106.62,-325.75 1112.62,-319.75 1118.62,-319.75 1118.62,-319.75 1255.38,-319.75 1255.38,-319.75 1261.38,-319.75 1267.38,-325.75 1267.38,-331.75 1267.38,-331.75 1267.38,-351.75 1267.38,-351.75 1267.38,-357.75 1261.38,-363.75 1255.38,-363.75"/>
<text xml:space="preserve" text-anchor="middle" x="1187" y="-349.3" font-family="Helvetica,sans-Serif" font-size="11.00">Observability</text>
<text xml:space="preserve" text-anchor="middle" x="1187" y="-337.3" font-family="Helvetica,sans-Serif" font-size="11.00">metrics · read&#45;only dashboard</text>
<text xml:space="preserve" text-anchor="middle" x="1187" y="-325.3" font-family="Helvetica,sans-Serif" font-size="11.00">digest · Slack · dead&#45;man ping</text>
</g>
<!-- pg&#45;&gt;obs -->
<g id="edge39" class="edge">
<title>pg&#45;&gt;obs</title>
<path fill="none" stroke="#555555" stroke-dasharray="5,2" d="M505.56,-258.78C518.33,-264.11 531.18,-269.98 543,-276.25 556.4,-283.35 556.58,-291.07 571,-295.75 626.39,-313.72 1037.83,-294.68 1095,-305.75 1106.44,-307.97 1118.32,-311.49 1129.58,-315.46"/>
<polygon fill="#555555" stroke="#555555" points="1128.15,-318.66 1138.74,-318.85 1130.58,-312.09 1128.15,-318.66"/>
</g>
<!-- halt&#45;&gt;gates -->
<g id="edge28" class="edge">
<title>halt&#45;&gt;gates</title>
<path fill="none" stroke="#b71c1c" stroke-dasharray="5,2" d="M1344.25,-364.22C1321.66,-395.23 1275.35,-451.81 1221,-479 1163.5,-507.77 995.98,-527.14 883.69,-537.3"/>
<polygon fill="#b71c1c" stroke="#b71c1c" points="883.48,-533.81 873.83,-538.18 884.1,-540.78 883.48,-533.81"/>
<text xml:space="preserve" text-anchor="middle" x="1316.91" y="-453.32" font-family="Helvetica,sans-Serif" font-size="9.00">blocks ALL orders</text>
</g>
<!-- kill&#45;&gt;venue -->
<g id="edge31" class="edge">
<title>kill&#45;&gt;venue</title>
<path fill="none" stroke="#b71c1c" stroke-width="2.5" d="M1470.6,-312.7C1460.98,-310.19 1451.32,-307.83 1442,-305.75 1321.45,-278.87 1181.58,-257.27 1085.77,-243.92"/>
<polygon fill="#b71c1c" stroke="#b71c1c" stroke-width="2.5" points="1086.39,-240.47 1076,-242.56 1085.43,-247.4 1086.39,-240.47"/>
<text xml:space="preserve" text-anchor="middle" x="1436.39" y="-287.2" font-family="Helvetica,sans-Serif" font-size="9.00" fill="#b71c1c">freeze + cancel</text>
<text xml:space="preserve" text-anchor="middle" x="1436.39" y="-277.45" font-family="Helvetica,sans-Serif" font-size="9.00" fill="#b71c1c">(bypasses everything)</text>
</g>
<!-- promo&#45;&gt;strategy -->
<g id="edge33" class="edge">
<title>promo&#45;&gt;strategy</title>
<path fill="none" stroke="#555555" stroke-dasharray="5,2" d="M1776.59,-365.18C1763.76,-387.34 1747,-422.67 1747,-456 1747,-647.25 1747,-647.25 1747,-647.25 1747,-691.87 1128.93,-720.81 847.58,-731.67"/>
<polygon fill="#555555" stroke="#555555" points="847.85,-728.16 837.99,-732.04 848.12,-735.15 847.85,-728.16"/>
<text xml:space="preserve" text-anchor="middle" x="1791.62" y="-543.08" font-family="Helvetica,sans-Serif" font-size="9.00">stage: Sim/Paper/Live</text>
</g>
</g>
</svg>
